<?xml version="1.0" encoding="iso-8859-1"?>
<!-- Generator: Adobe Illustrator 19.0.0, SVG Export Plug-In . SVG Version: 6.00 Build 0)  -->
<svg version="1.1" id="Layer_1" xmlns="http://www.w3.org/2000/svg" xmlns:xlink="http://www.w3.org/1999/xlink" x="0px" y="0px"
	 viewBox="0 0 512 512" style="enable-background:new 0 0 512 512;" xml:space="preserve">
<g>
	<g>
		<polygon style="fill:#E5CFAE;" points="384,484.571 463.835,452.782 384,237.714 		"/>
		<polygon style="fill:#E5CFAE;" points="128,27.429 48.165,59.218 128,274.286 		"/>
	</g>
	<polygon style="fill:#FDECCD;" points="128,512 384,512 384,0 128,0 	"/>
	<g>
		<polygon points="384,265.143 384,246.857 128,246.857 128,265.143 		"/>
		<path d="M210.286,311.093c0-10.231-7.817-18.523-18.048-18.523c-10.231,0-18.523,8.055-18.523,18.286
			c0,10.231,8.293,18.286,18.523,18.286C202.469,329.141,210.286,321.324,210.286,311.093"/>
		<path d="M210.286,448.236c0-10.231-7.817-18.523-18.048-18.523c-10.231,0-18.523,8.055-18.523,18.286
			c0,10.231,8.293,18.286,18.523,18.286C202.469,466.284,210.286,458.467,210.286,448.236"/>
		<path d="M338.286,311.093c0-10.231-7.817-18.523-18.048-18.523s-18.523,8.055-18.523,18.286c0,10.231,8.293,18.286,18.523,18.286
			S338.286,321.324,338.286,311.093"/>
		<path d="M338.286,448.236c0-10.231-7.817-18.523-18.048-18.523s-18.523,8.055-18.523,18.286c0,10.231,8.293,18.286,18.523,18.286
			S338.286,458.467,338.286,448.236"/>
		<path d="M210.286,64.236c0-10.231-7.817-18.523-18.048-18.523c-10.231,0-18.523,8.055-18.523,18.286s8.293,18.286,18.523,18.286
			C202.469,82.284,210.286,74.467,210.286,64.236"/>
		<path d="M210.286,192.236c0-10.231-7.817-18.523-18.048-18.523c-10.231,0-18.523,8.055-18.523,18.286
			c0,10.231,8.293,18.286,18.523,18.286C202.469,210.284,210.286,202.467,210.286,192.236"/>
		<path d="M338.286,64.236c0-10.231-7.817-18.523-18.048-18.523s-18.523,8.055-18.523,18.286s8.293,18.286,18.523,18.286
			S338.286,74.467,338.286,64.236"/>
		<path d="M338.286,192.236c0-10.231-7.817-18.523-18.048-18.523s-18.523,8.055-18.523,18.286c0,10.231,8.293,18.286,18.523,18.286
			S338.286,202.467,338.286,192.236"/>
	</g>
</g>
<g>
</g>
<g>
</g>
<g>
</g>
<g>
</g>
<g>
</g>
<g>
</g>
<g>
</g>
<g>
</g>
<g>
</g>
<g>
</g>
<g>
</g>
<g>
</g>
<g>
</g>
<g>
</g>
<g>
</g>
</svg>
