<?xml version="1.0" encoding="iso-8859-1"?>
<!-- Generator: Adobe Illustrator 19.0.0, SVG Export Plug-In . SVG Version: 6.00 Build 0)  -->
<svg version="1.1" id="Layer_1" xmlns="http://www.w3.org/2000/svg" xmlns:xlink="http://www.w3.org/1999/xlink" x="0px" y="0px"
	 viewBox="0 0 512 512" style="enable-background:new 0 0 512 512;" xml:space="preserve">
<g>
	<g>
		<polygon style="fill:#E5CFAE;" points="384,484.571 463.835,452.782 384,237.714 		"/>
		<polygon style="fill:#E5CFAE;" points="128,27.429 48.165,59.218 128,274.286 		"/>
	</g>
	<polygon style="fill:#FDECCD;" points="128,512 384,512 384,0 128,0 	"/>
	<g>
		<polygon points="384,265.143 384,246.857 128,246.857 128,265.143 		"/>
		<path d="M338.286,448.236c0-10.231-7.817-18.523-18.048-18.523s-18.523,8.055-18.523,18.286c0,10.231,8.293,18.286,18.523,18.286
			S338.286,458.467,338.286,448.236"/>
		<path d="M338.286,384.236c0-10.231-7.817-18.523-18.048-18.523s-18.523,8.055-18.523,18.286c0,10.231,8.293,18.286,18.523,18.286
			S338.286,394.467,338.286,384.236"/>
		<path d="M210.286,384.236c0-10.231-7.817-18.523-18.048-18.523c-10.231,0-18.523,8.055-18.523,18.286
			c0,10.231,8.293,18.286,18.523,18.286C202.469,402.284,210.286,394.467,210.286,384.236"/>
		<path d="M210.286,320.236c0-10.231-7.817-18.523-18.048-18.523c-10.231,0-18.523,8.055-18.523,18.286
			c0,10.231,8.293,18.286,18.523,18.286C202.469,338.284,210.286,330.467,210.286,320.236"/>
		<path d="M191.764,466.286c10.231,0,18.523-7.817,18.523-18.048c0-10.231-8.055-18.523-18.286-18.523
			c-10.231,0-18.286,8.293-18.286,18.523C173.716,458.469,181.533,466.286,191.764,466.286"/>
		<path d="M319.764,338.286c10.231,0,18.523-7.817,18.523-18.048c0-10.231-8.055-18.523-18.286-18.523
			c-10.231,0-18.286,8.293-18.286,18.523C301.716,330.469,309.533,338.286,319.764,338.286"/>
		<path d="M338.286,192.236c0-10.231-7.817-18.523-18.048-18.523s-18.523,8.055-18.523,18.286c0,10.231,8.293,18.286,18.523,18.286
			S338.286,202.467,338.286,192.236"/>
		<path d="M338.286,128.236c0-10.231-7.817-18.523-18.048-18.523s-18.523,8.055-18.523,18.286s8.293,18.286,18.523,18.286
			S338.286,138.467,338.286,128.236"/>
		<path d="M210.286,128.236c0-10.231-7.817-18.523-18.048-18.523c-10.231,0-18.523,8.055-18.523,18.286s8.293,18.286,18.523,18.286
			C202.469,146.284,210.286,138.467,210.286,128.236"/>
		<path d="M210.286,64.236c0-10.231-7.817-18.523-18.048-18.523c-10.231,0-18.523,8.055-18.523,18.286s8.293,18.286,18.523,18.286
			C202.469,82.284,210.286,74.467,210.286,64.236"/>
		<path d="M191.764,210.286c10.231,0,18.523-7.817,18.523-18.048c0-10.231-8.055-18.523-18.286-18.523
			c-10.231,0-18.286,8.293-18.286,18.523C173.716,202.469,181.533,210.286,191.764,210.286"/>
		<path d="M319.764,82.286c10.231,0,18.523-7.817,18.523-18.048s-8.055-18.523-18.286-18.523c-10.231,0-18.286,8.293-18.286,18.523
			S309.533,82.286,319.764,82.286"/>
	</g>
</g>
<g>
</g>
<g>
</g>
<g>
</g>
<g>
</g>
<g>
</g>
<g>
</g>
<g>
</g>
<g>
</g>
<g>
</g>
<g>
</g>
<g>
</g>
<g>
</g>
<g>
</g>
<g>
</g>
<g>
</g>
</svg>
